<svg width="36" height="36" viewBox="0 0 36 36" fill="none" xmlns="http://www.w3.org/2000/svg">
<path d="M22.4559 14.2463C22.8091 13.9179 23.3819 13.9179 23.7351 14.2463C24.0883 14.5748 24.0883 15.1075 23.7351 15.4359L16.9413 21.7537C16.588 22.0821 16.0151 22.0821 15.6619 21.7537L12.2649 18.5948C11.9117 18.2664 11.9117 17.7337 12.2649 17.4053C12.6182 17.0768 13.191 17.0768 13.5442 17.4053L16.3016 19.9694L22.4559 14.2463Z" fill="white"/>
<circle cx="18" cy="18" r="17" stroke="#EAECF0" stroke-width="2"/>
<path d="M18 1C20.2325 1 22.4431 1.43972 24.5056 2.29405C26.5682 3.14838 28.4422 4.40059 30.0208 5.97919C31.5994 7.55778 32.8516 9.43185 33.706 11.4944C34.5603 13.5569 35 15.7675 35 18C35 20.2325 34.5603 22.4431 33.706 24.5056C32.8516 26.5682 31.5994 28.4422 30.0208 30.0208C28.4422 31.5994 26.5681 32.8516 24.5056 33.706C22.4431 34.5603 20.2325 35 18 35C15.7675 35 13.5569 34.5603 11.4944 33.7059C9.43184 32.8516 7.55778 31.5994 5.97918 30.0208C4.40058 28.4422 3.14837 26.5681 2.29404 24.5056C1.43972 22.4431 0.999999 20.2325 1 18C1 15.7675 1.43972 13.5569 2.29405 11.4944C3.14838 9.43184 4.40059 7.55777 5.97919 5.97918C7.55779 4.40058 9.43186 3.14837 11.4944 2.29404C13.5569 1.43972 15.7675 0.999999 18 1L18 1Z" stroke="#68CE62" stroke-width="2" stroke-linecap="round"/>
</svg>
