<svg width="24" height="24" viewBox="0 0 24 24" fill="none" xmlns="http://www.w3.org/2000/svg">
<rect x="0.5" y="0.5" width="22.7861" height="23" rx="11.3931" stroke="#FFF4F4"/>
<path fill-rule="evenodd" clip-rule="evenodd" d="M11.8933 22.0002C6.42745 22.0002 1.98242 17.5142 1.98242 12.0002C1.98242 6.48624 6.42745 2.00024 11.8933 2.00024C17.3582 2.00024 21.8042 6.48624 21.8042 12.0002C21.8042 17.5142 17.3582 22.0002 11.8933 22.0002Z" fill="#EAECF0"/>
<path fill-rule="evenodd" clip-rule="evenodd" d="M13.3227 16.2209C13.1334 16.2209 12.9431 16.1479 12.7984 16.0019L9.34252 12.5319C9.20277 12.3909 9.12448 12.1999 9.12448 11.9999C9.12448 11.8009 9.20277 11.6099 9.34252 11.4689L12.7984 7.99695C13.0888 7.70495 13.5586 7.70495 13.849 7.99895C14.1384 8.29295 14.1374 8.76795 13.847 9.05995L10.9203 11.9999L13.847 14.9399C14.1374 15.2319 14.1384 15.7059 13.849 15.9999C13.7043 16.1479 13.513 16.2209 13.3227 16.2209Z" fill="#363644"/>
</svg>
