<svg width="24" height="24" viewBox="0 0 24 24" fill="none" xmlns="http://www.w3.org/2000/svg">
<path fill-rule="evenodd" clip-rule="evenodd" d="M22 11.9999C22 17.5229 17.523 21.9999 12 21.9999C6.477 21.9999 2 17.5229 2 11.9999C2 6.47788 6.477 1.99988 12 1.99988C17.523 1.99988 22 6.47788 22 11.9999Z" fill="#EAECF0"/>
<path fill-rule="evenodd" clip-rule="evenodd" d="M15.8597 8.70487L14.2397 13.8249C14.1797 14.0349 14.0097 14.2049 13.7997 14.2659L8.69972 15.8649C8.35972 15.9759 8.02972 15.6449 8.13972 15.3049L9.73972 10.1749C9.79972 9.96487 9.96972 9.80487 10.1797 9.73487L15.2997 8.13487C15.6497 8.02487 15.9697 8.35487 15.8597 8.70487Z" fill="#9B9BA1"/>
</svg>
