<svg width="24" height="24" viewBox="0 0 24 24" fill="none" xmlns="http://www.w3.org/2000/svg">
<path fill-rule="evenodd" clip-rule="evenodd" d="M13.8837 19.2284C13.3883 19.1216 10.3692 19.1216 9.87377 19.2284C9.45021 19.3271 8.99219 19.5567 8.99219 20.0603C9.01681 20.5407 9.29557 20.9647 9.68169 21.2336L9.68071 21.2346C10.1801 21.6274 10.7662 21.8771 11.3798 21.9668C11.7069 22.0121 12.0398 22.0101 12.3786 21.9668C12.9913 21.8771 13.5774 21.6274 14.0768 21.2346L14.0758 21.2336C14.4619 20.9647 14.7407 20.5407 14.7653 20.0603C14.7653 19.5567 14.3073 19.3271 13.8837 19.2284Z" fill="#040415"/>
<path fill-rule="evenodd" clip-rule="evenodd" d="M19.5933 11.6453C18.8693 10.7923 18.5403 10.0531 18.5403 8.79716V8.37013C18.5403 6.73354 18.167 5.67907 17.3554 4.62459C16.1044 2.98699 13.9985 2 11.9368 2H11.8492C9.8309 2 7.79095 2.94167 6.51833 4.5128C5.66236 5.58842 5.2457 6.68822 5.2457 8.37013V8.79716C5.2457 10.0531 4.93838 10.7923 4.19273 11.6453C3.64408 12.2738 3.46875 13.0815 3.46875 13.9557C3.46875 14.8309 3.75342 15.6598 4.32472 16.3336C5.07037 17.1413 6.12334 17.6569 7.19896 17.7466C8.75626 17.9258 10.3136 17.9933 11.8935 17.9933C13.4725 17.9933 15.0298 17.8805 16.588 17.7466C17.6627 17.6569 18.7156 17.1413 19.4613 16.3336C20.0316 15.6598 20.3173 14.8309 20.3173 13.9557C20.3173 13.0815 20.1419 12.2738 19.5933 11.6453Z" fill="#CDCDD0"/>
</svg>
