<svg width="24" height="16" viewBox="0 0 24 16" fill="none" xmlns="http://www.w3.org/2000/svg">
<path d="M21.8744 2.09018C20.7343 2.10951 19.7874 3.11434 19.8454 4.25444C19.8647 4.89212 20.1739 5.43318 20.6377 5.80033C18.2415 9.00806 15.8068 9.25927 12.9855 3.94526C13.9903 3.44284 14.5507 2.16748 13.8164 0.892116C13.4686 0.273759 12.7536 -0.0354201 12.0386 0.00322727C12.0193 0.00322727 12.0193 0.00322727 12 0.00322727C12 0.00322727 11.9807 0.00322727 11.9614 0.00322727C11.2464 -0.0160964 10.5507 0.273759 10.1836 0.892116C9.44928 2.16748 10.0097 3.44284 11.0145 3.94526C8.19324 9.25927 5.75845 9.00806 3.36232 5.80033C3.82609 5.43318 4.13527 4.87279 4.15459 4.25444C4.19324 3.11434 3.2657 2.10951 2.1256 2.09018C0.94686 2.07086 0 2.9984 0 4.17714C0 5.31724 0.927536 6.2641 2.08696 6.2641C2.16425 6.2641 2.26087 6.2641 2.33816 6.24477L3.13043 14.0129C3.18841 14.6312 3.71014 15.095 4.3285 15.095H19.6715C20.2899 15.095 20.8116 14.6312 20.8696 14.0129L21.6618 6.24477C21.7391 6.2641 21.8164 6.2641 21.913 6.2641C23.0531 6.2641 24 5.33656 24 4.17714C24 2.9984 23.0338 2.07086 21.8744 2.09018Z" fill="#FFCA00"/>
</svg>
